<svg width="140" height="142" viewBox="0 0 140 142" fill="none" xmlns="http://www.w3.org/2000/svg" xmlns:xlink="http://www.w3.org/1999/xlink">
<path d="M129.672,0.001L10.328,0.001C7.62,-0.027 5.012,1.021 3.076,2.914C1.139,4.807 0.033,7.391 0,10.099L0,129.925C0.039,132.629 1.148,135.207 3.084,137.095C5.019,138.984 7.624,140.028 10.328,140.001L129.672,140.001C132.38,140.022 134.987,138.971 136.922,137.076C138.857,135.182 139.964,132.599 140,129.891L140,10.064C139.952,7.365 138.84,4.793 136.906,2.908C134.972,1.024 132.372,-0.021 129.672,0.001Z" fill="#0076B2"/>
<path d="M20.725,52.478L41.507,52.478L41.507,119.345L20.725,119.345L20.725,52.478ZM31.121,19.199C33.505,19.199 35.835,19.906 37.817,21.231C39.798,22.555 41.343,24.438 42.254,26.64C43.166,28.842 43.404,31.266 42.938,33.603C42.472,35.941 41.324,38.088 39.637,39.772C37.951,41.457 35.803,42.604 33.465,43.067C31.127,43.531 28.704,43.291 26.502,42.377C24.301,41.463 22.42,39.917 21.097,37.934C19.775,35.951 19.07,33.621 19.072,31.237C19.075,28.043 20.346,24.981 22.605,22.724C24.865,20.467 27.928,19.199 31.121,19.199Z" fill="#FFFFFF"/>
<path d="M54.543,52.478L74.464,52.478L74.464,61.658L74.74,61.658C77.517,56.402 84.287,50.859 94.397,50.859C115.443,50.814 119.345,64.664 119.345,82.623L119.345,119.345L98.563,119.345L98.563,86.812C98.563,79.066 98.425,69.094 87.764,69.094C77.104,69.094 75.291,77.54 75.291,86.307L75.291,119.345L54.543,119.345L54.543,52.478Z" fill="#FFFFFF"/>
</svg>
