<svg width="50" height="50" viewBox="0 0 50 50" fill="none" xmlns="http://www.w3.org/2000/svg" xmlns:xlink="http://www.w3.org/1999/xlink">
<path d="M33.482,20.833C33.482,27.818 27.819,33.48 20.834,33.48L20.834,37.352C29.958,37.352 37.354,29.956 37.354,20.833L33.482,20.833ZM20.834,33.48C13.849,33.48 8.187,27.818 8.187,20.833L4.315,20.833C4.315,29.956 11.711,37.352 20.834,37.352L20.834,33.48ZM8.187,20.833C8.187,13.848 13.849,8.185 20.834,8.185L20.834,4.314C11.711,4.314 4.315,11.709 4.315,20.833L8.187,20.833ZM20.834,8.185C27.819,8.185 33.482,13.848 33.482,20.833L37.354,20.833C37.354,11.709 29.958,4.314 20.834,4.314L20.834,8.185Z" fill="#000000"/>
<path d="M42.381,45.118C43.137,45.874 44.363,45.874 45.119,45.118C45.875,44.362 45.875,43.137 45.119,42.381L42.381,45.118ZM32.619,29.881C31.863,29.125 30.637,29.125 29.881,29.881C29.125,30.637 29.125,31.862 29.881,32.618L32.619,29.881ZM45.119,42.381L32.619,29.881L29.881,32.618L42.381,45.118L45.119,42.381Z" fill="#000000"/>
</svg>
