<svg width="100" height="100" viewBox="0 0 100 100" fill="none" xmlns="http://www.w3.org/2000/svg" xmlns:xlink="http://www.w3.org/1999/xlink">
<path d="M67.899,41.666C67.899,56.705 55.708,68.896 40.669,68.896L40.669,72.768C57.846,72.768 71.771,58.843 71.771,41.666L67.899,41.666ZM40.669,68.896C25.63,68.896 13.438,56.705 13.438,41.666L9.566,41.666C9.566,58.843 23.491,72.768 40.669,72.768L40.669,68.896ZM13.438,41.666C13.438,26.627 25.63,14.435 40.669,14.435L40.669,10.563C23.491,10.563 9.566,24.488 9.566,41.666L13.438,41.666ZM40.669,14.435C55.708,14.435 67.899,26.627 67.899,41.666L71.771,41.666C71.771,24.488 57.846,10.563 40.669,10.563L40.669,14.435Z" fill="#000000"/>
<path d="M85.131,88.868C85.887,89.624 87.113,89.624 87.869,88.868C88.625,88.111 88.625,86.886 87.869,86.13L85.131,88.868ZM62.869,61.13C62.113,60.374 60.887,60.374 60.131,61.13C59.375,61.886 59.375,63.111 60.131,63.867L62.869,61.13ZM87.869,86.13L62.869,61.13L60.131,63.867L85.131,88.868L87.869,86.13Z" fill="#000000"/>
</svg>
