<svg width="40" height="48" viewBox="0 0 40 48" fill="none" xmlns="http://www.w3.org/2000/svg" xmlns:xlink="http://www.w3.org/1999/xlink">
<path d="M5,31.501C5,32.881 3.88,34.001 2.5,34.001C1.12,34.001 0,32.881 0,31.501L0,20.251C0,18.871 1.12,17.751 2.5,17.751C3.88,17.751 5,18.871 5,20.251L5,31.501Z" fill="#7CB342"/>
<path d="M40,31.501C40,32.881 38.88,34.001 37.5,34.001C36.12,34.001 35,32.881 35,31.501L35,20.251C35,18.871 36.12,17.751 37.5,17.751C38.88,17.751 40,18.871 40,20.251L40,31.501Z" fill="#7CB342"/>
<path d="M17.5,45.25C17.5,46.63 16.38,47.75 15,47.75C13.62,47.75 12.5,46.63 12.5,45.25L12.5,34C12.5,32.62 13.62,31.5 15,31.5C16.38,31.5 17.5,32.62 17.5,34L17.5,45.25Z" fill="#7CB342"/>
<path d="M27.5,45.25C27.5,46.63 26.38,47.75 25,47.75C23.62,47.75 22.5,46.63 22.5,45.25L22.5,34C22.5,32.62 23.62,31.5 25,31.5C26.38,31.5 27.5,32.62 27.5,34L27.5,45.25Z" fill="#7CB342"/>
<path d="M7.5,17.751L7.5,36.5C7.5,37.88 8.62,39 10,39L30,39C31.38,39 32.5,37.88 32.5,36.5L32.5,17.751L7.5,17.751Z" fill="#7CB342"/>
<path d="M20,5.25C12.5,5.25 7.931,9.806 7.5,15.25L32.5,15.25C32.067,9.806 27.5,5.25 20,5.25ZM15,12.248C14.31,12.248 13.75,11.688 13.75,10.998C13.75,10.307 14.31,9.748 15,9.748C15.69,9.748 16.25,10.307 16.25,10.998C16.25,11.688 15.69,12.248 15,12.248ZM25,12.248C24.309,12.248 23.75,11.688 23.75,10.998C23.75,10.307 24.309,9.748 25,9.748C25.691,9.748 26.25,10.307 26.25,10.998C26.25,11.688 25.691,12.248 25,12.248Z" fill="#7CB342"/>
<path d="M30.433,5.955C31.512,4.335 31.075,2.147 29.455,1.067C27.835,-0.013 25.646,0.425 24.566,2.045L30.433,5.955ZM22.484,5.168C21.404,6.788 21.842,8.977 23.462,10.057C25.082,11.137 27.27,10.699 28.35,9.079L22.484,5.168ZM24.566,2.045L22.484,5.168L28.35,9.079L30.433,5.955L24.566,2.045Z" fill="#7CB342"/>
<path d="M15.469,2.099C14.419,0.46 12.239,-0.019 10.599,1.031C8.96,2.081 8.481,4.261 9.531,5.901L15.469,2.099ZM11.197,8.503C12.247,10.143 14.427,10.621 16.067,9.571C17.707,8.521 18.185,6.341 17.135,4.702L11.197,8.503ZM9.531,5.901L11.197,8.503L17.135,4.702L15.469,2.099L9.531,5.901Z" fill="#7CB342"/>
</svg>
