<svg width="100" height="100" viewBox="0 0 100 100" fill="none" xmlns="http://www.w3.org/2000/svg" xmlns:xlink="http://www.w3.org/1999/xlink">
<path d="M68.659,41.666C68.659,56.699 56.435,68.896 41.344,68.896L41.344,72.768C58.563,72.768 72.531,58.848 72.531,41.666L68.659,41.666ZM41.344,68.896C26.252,68.896 14.028,56.699 14.028,41.666L10.156,41.666C10.156,58.848 24.124,72.768 41.344,72.768L41.344,68.896ZM14.028,41.666C14.028,26.632 26.252,14.435 41.344,14.435L41.344,10.563C24.124,10.563 10.156,24.483 10.156,41.666L14.028,41.666ZM41.344,14.435C56.435,14.435 68.659,26.632 68.659,41.666L72.531,41.666C72.531,24.483 58.563,10.563 41.344,10.563L41.344,14.435Z" fill="#000000"/>
<path d="M85.936,88.869C86.694,89.624 87.919,89.622 88.674,88.865C89.429,88.108 89.427,86.882 88.67,86.127L85.936,88.869ZM63.597,61.127C62.84,60.372 61.614,60.374 60.86,61.131C60.105,61.888 60.106,63.114 60.864,63.869L63.597,61.127ZM88.67,86.127L63.597,61.127L60.864,63.869L85.936,88.869L88.67,86.127Z" fill="#000000"/>
</svg>
