<svg width="140" height="124" viewBox="0 0 140 124" fill="none" xmlns="http://www.w3.org/2000/svg" xmlns:xlink="http://www.w3.org/1999/xlink">
<path d="M122.5,0L52.5,0C47.667,0 43.75,3.917 43.75,8.75L43.75,113.75C43.75,118.582 47.667,122.5 52.5,122.5L122.5,122.5C127.332,122.5 131.25,118.582 131.25,113.75L131.25,8.75C131.25,3.917 127.332,0 122.5,0Z" fill="#1066B5"/>
<path d="M122.5,0L52.5,0C47.667,0 43.75,3.917 43.75,8.75L43.75,113.75C43.75,118.582 47.667,122.5 52.5,122.5L122.5,122.5C127.332,122.5 131.25,118.582 131.25,113.75L131.25,8.75C131.25,3.917 127.332,0 122.5,0Z" fill="url(#pf_0_28_183)"/>
<rect  x="43.75" y="13.125" width="43.75" height="43.75" fill="#32A9E7"/>
<rect  x="43.75" y="56.875" width="43.75" height="43.75" fill="#167EB4"/>
<rect  x="87.5" y="56.875" width="43.75" height="43.75" fill="#32A9E7"/>
<rect  x="87.5" y="13.125" width="43.75" height="43.75" fill="#58D9FD"/>
<path d="M35,43.75C35,36.501 40.876,30.625 48.125,30.625L74.375,30.625C81.624,30.625 87.5,36.501 87.5,43.75L87.5,96.25C87.5,103.499 81.624,109.375 74.375,109.375L35,109.375L35,43.75Z" fill="#000000" fill-opacity="0.3"/>
<path d="M70,21.875L8.75,21.875C3.917,21.875 0,25.792 0,30.625L0,91.875C0,96.707 3.917,100.625 8.75,100.625L70,100.625C74.832,100.625 78.75,96.707 78.75,91.875L78.75,30.625C78.75,25.792 74.832,21.875 70,21.875Z" fill="url(#pf_0_28_196)"/>
<path d="M61.25,61.553L61.25,60.826C61.25,48.222 52.181,39.375 39.444,39.375C26.638,39.375 17.5,48.282 17.5,60.947L17.5,61.674C17.5,74.278 26.568,83.125 39.375,83.125C52.112,83.125 61.25,74.217 61.25,61.553ZM50.935,61.674C50.935,70.036 46.228,75.066 39.444,75.066C32.66,75.066 27.884,69.915 27.884,61.553L27.884,60.826C27.884,52.464 32.591,47.434 39.375,47.434C46.09,47.434 50.935,52.585 50.935,60.947L50.935,61.674Z" fill="#FFFFFF"/>
<defs>
<linearGradient id="pf_0_28_183" x1="43.75" y1="61.25" x2="131.25" y2="61.25" gradientUnits="userSpaceOnUse">
<stop stop-color="#064484"/>
<stop offset="1" stop-color="#0F65B5"/>
</linearGradient>
<linearGradient id="pf_0_28_196" x1="0" y1="61.25" x2="78.75" y2="61.25" gradientUnits="userSpaceOnUse">
<stop stop-color="#064484"/>
<stop offset="1" stop-color="#0F65B5"/>
</linearGradient>
</defs>
</svg>
