<svg width="140" height="140" viewBox="0 0 140 140" fill="none" xmlns="http://www.w3.org/2000/svg" xmlns:xlink="http://www.w3.org/1999/xlink">
<path d="M138.639,56.291L133,56.291L133,56L70,56L70,84L109.561,84C103.789,100.299 88.281,112 70,112C46.806,112 28,93.194 28,70C28,46.806 46.806,28 70,28C80.706,28 90.447,32.039 97.864,38.636L117.663,18.837C105.161,7.185 88.438,0 70,0C31.342,0 0,31.342 0,70C0,108.658 31.342,140 70,140C108.658,140 140,108.658 140,70C140,65.307 139.517,60.725 138.639,56.291Z" fill="#FFC107"/>
<path d="M8.071,37.418L31.07,54.285C37.293,38.878 52.364,28 70,28C80.707,28 90.447,32.039 97.864,38.636L117.663,18.837C105.161,7.185 88.438,0 70,0C43.113,0 19.796,15.18 8.071,37.418Z" fill="#FF3D00"/>
<path d="M69.999,140C88.08,140 104.509,133.081 116.931,121.828L95.266,103.495C88.238,108.819 79.502,112 69.999,112C51.792,112 36.333,100.391 30.509,84.189L7.682,101.777C19.267,124.446 42.794,140 69.999,140Z" fill="#4CAF50"/>
<path d="M138.639,56.29L133,56.29L133,56L70,56L70,84L109.561,84C106.789,91.83 101.752,98.581 95.256,103.499C95.259,103.495 95.263,103.495 95.266,103.492L116.932,121.825C115.399,123.217 140,105 140,70C140,65.307 139.517,60.725 138.639,56.29Z" fill="#1976D2"/>
</svg>
