<svg width="40" height="36" viewBox="0 0 40 36" fill="none" xmlns="http://www.w3.org/2000/svg" xmlns:xlink="http://www.w3.org/1999/xlink">
<path d="M20,36L17.1,33.4C13.733,30.366 10.95,27.75 8.75,25.55C6.55,23.35 4.8,21.375 3.5,19.625C2.2,17.875 1.292,16.266 0.775,14.8C0.258,13.333 0,11.833 0,10.3C0,7.166 1.05,4.55 3.15,2.45C5.25,0.35 7.867,-0.7 11,-0.7C12.733,-0.7 14.383,-0.334 15.95,0.4C17.517,1.133 18.867,2.166 20,3.5C21.133,2.166 22.483,1.133 24.05,0.4C25.617,-0.334 27.267,-0.7 29,-0.7C32.133,-0.7 34.75,0.35 36.85,2.45C38.95,4.55 40,7.166 40,10.3C40,11.833 39.742,13.333 39.225,14.8C38.708,16.266 37.8,17.875 36.5,19.625C35.2,21.375 33.45,23.35 31.25,25.55C29.05,27.75 26.267,30.366 22.9,33.4L20,36ZM20,30.6C23.2,27.733 25.833,25.275 27.9,23.225C29.967,21.175 31.6,19.391 32.8,17.875C34,16.358 34.833,15.008 35.3,13.825C35.767,12.641 36,11.466 36,10.3C36,8.3 35.333,6.633 34,5.3C32.667,3.966 31,3.3 29,3.3C27.433,3.3 25.983,3.741 24.65,4.625C23.317,5.508 22.4,6.633 21.9,8L18.1,8C17.6,6.633 16.683,5.508 15.35,4.625C14.017,3.741 12.567,3.3 11,3.3C9,3.3 7.333,3.966 6,5.3C4.667,6.633 4,8.3 4,10.3C4,11.466 4.233,12.641 4.7,13.825C5.167,15.008 6,16.358 7.2,17.875C8.4,19.391 10.033,21.175 12.1,23.225C14.167,25.275 16.8,27.733 20,30.6Z" fill="#000000"/>
</svg>
