<svg width="68" height="68" viewBox="0 0 68 68" fill="none" xmlns="http://www.w3.org/2000/svg" xmlns:xlink="http://www.w3.org/1999/xlink">
<path d="M24.833,67.333L23.5,56.667C22.778,56.389 22.097,56.055 21.458,55.667C20.819,55.278 20.194,54.861 19.583,54.417L9.667,58.583L0.5,42.75L9.083,36.25C9.028,35.861 9,35.486 9,35.125L9,32.875C9,32.514 9.028,32.139 9.083,31.75L0.5,25.25L9.667,9.417L19.583,13.583C20.194,13.139 20.833,12.722 21.5,12.333C22.167,11.944 22.833,11.611 23.5,11.333L24.833,0.667L43.167,0.667L44.5,11.333C45.222,11.611 45.903,11.944 46.542,12.333C47.181,12.722 47.806,13.139 48.417,13.583L58.333,9.417L67.5,25.25L58.917,31.75C58.972,32.139 59,32.514 59,32.875L59,35.125C59,35.486 58.944,35.861 58.833,36.25L67.417,42.75L58.25,58.583L48.417,54.417C47.806,54.861 47.167,55.278 46.5,55.667C45.833,56.055 45.167,56.389 44.5,56.667L43.167,67.333L24.833,67.333ZM30.667,60.667L37.25,60.667L38.417,51.833C40.139,51.389 41.736,50.736 43.208,49.875C44.681,49.014 46.028,47.972 47.25,46.75L55.5,50.167L58.75,44.5L51.583,39.083C51.861,38.305 52.056,37.486 52.167,36.625C52.278,35.764 52.333,34.889 52.333,34C52.333,33.111 52.278,32.236 52.167,31.375C52.056,30.514 51.861,29.694 51.583,28.917L58.75,23.5L55.5,17.833L47.25,21.333C46.028,20.056 44.681,18.986 43.208,18.125C41.736,17.264 40.139,16.611 38.417,16.167L37.333,7.333L30.75,7.333L29.583,16.167C27.861,16.611 26.264,17.264 24.792,18.125C23.319,18.986 21.972,20.028 20.75,21.25L12.5,17.833L9.25,23.5L16.417,28.833C16.139,29.667 15.944,30.5 15.833,31.333C15.722,32.167 15.667,33.055 15.667,34C15.667,34.889 15.722,35.75 15.833,36.583C15.944,37.417 16.139,38.25 16.417,39.083L9.25,44.5L12.5,50.167L20.75,46.667C21.972,47.944 23.319,49.014 24.792,49.875C26.264,50.736 27.861,51.389 29.583,51.833L30.667,60.667ZM34.167,45.667C37.389,45.667 40.139,44.528 42.417,42.25C44.694,39.972 45.833,37.222 45.833,34C45.833,30.778 44.694,28.028 42.417,25.75C40.139,23.472 37.389,22.333 34.167,22.333C30.889,22.333 28.125,23.472 25.875,25.75C23.625,28.028 22.5,30.778 22.5,34C22.5,37.222 23.625,39.972 25.875,42.25C28.125,44.528 30.889,45.667 34.167,45.667Z" fill="#000000"/>
</svg>
