<svg width="100" height="100" viewBox="0 0 100 100" fill="none" xmlns="http://www.w3.org/2000/svg" xmlns:xlink="http://www.w3.org/1999/xlink">
<path d="M30.884,3.792C36.776,1.351 43.237,0 50,0C63.802,0 76.31,5.599 85.352,14.648C89.958,19.255 93.669,24.764 96.208,30.884C98.649,36.776 100,43.237 100,50C100,63.802 94.401,76.31 85.352,85.352C80.745,89.958 75.236,93.669 69.116,96.208C63.224,98.649 56.763,100 50,100C43.237,100 36.776,98.649 30.884,96.208C24.756,93.669 19.255,89.958 14.648,85.352C10.042,80.745 6.323,75.244 3.792,69.116C1.351,63.224 0,56.763 0,50C0,43.237 1.351,36.776 3.792,30.884C6.323,24.756 10.042,19.255 14.648,14.648C19.246,10.042 24.756,6.323 30.884,3.792ZM35.083,55.143C32.202,55.119 29.891,52.767 29.915,49.886C29.94,47.005 32.292,44.694 35.173,44.718L52.775,44.824L46.411,38.354C44.393,36.304 44.417,33 46.468,30.99C48.519,28.971 51.815,28.996 53.833,31.055L69.027,46.493C71.021,48.527 71.021,51.774 69.027,53.8L54.134,68.945C52.116,70.996 48.82,71.021 46.769,69.01C44.718,66.992 44.694,63.696 46.704,61.646L52.995,55.257L35.083,55.143ZM34.88,13.468C30.054,15.47 25.7,18.408 22.054,22.054C18.408,25.7 15.47,30.054 13.468,34.88C11.54,39.526 10.482,44.637 10.482,50C10.482,55.363 11.548,60.465 13.468,65.12C15.47,69.946 18.408,74.3 22.054,77.946C25.7,81.592 30.054,84.53 34.88,86.532C39.535,88.46 44.637,89.518 50,89.518C55.363,89.518 60.465,88.452 65.12,86.532C69.946,84.53 74.3,81.592 77.946,77.946C81.592,74.3 84.53,69.954 86.532,65.12C88.46,60.474 89.518,55.363 89.518,50C89.518,44.637 88.452,39.535 86.532,34.88C84.53,30.054 81.592,25.7 77.946,22.054C74.3,18.408 69.946,15.47 65.12,13.468C60.474,11.54 55.363,10.482 50,10.482C44.637,10.482 39.535,11.548 34.88,13.468Z" fill="#000000"/>
</svg>
