<svg width="44" height="44" viewBox="0 0 44 44" fill="none" xmlns="http://www.w3.org/2000/svg" xmlns:xlink="http://www.w3.org/1999/xlink">
<path d="M15.2,43L11.4,36.6L4.2,35L4.9,27.6L0,22L4.9,16.4L4.2,9L11.4,7.4L15.2,1L22,3.9L28.8,1L32.6,7.4L39.8,9L39.1,16.4L44,22L39.1,27.6L39.8,35L32.6,36.6L28.8,43L22,40.1L15.2,43ZM16.9,37.9L22,35.7L27.2,37.9L30,33.1L35.5,31.8L35,26.2L38.7,22L35,17.7L35.5,12.1L30,10.9L27.1,6.1L22,8.3L16.8,6.1L14,10.9L8.5,12.1L9,17.7L5.3,22L9,26.2L8.5,31.9L14,33.1L16.9,37.9ZM19.9,29.1L31.2,17.8L28.4,14.9L19.9,23.4L15.6,19.2L12.8,22L19.9,29.1Z" fill="#000000"/>
</svg>
