<svg width="100" height="94" viewBox="0 0 100 94" fill="none" xmlns="http://www.w3.org/2000/svg" xmlns:xlink="http://www.w3.org/1999/xlink">
<path d="M0.247,93.832C0.206,93.77 3.525,89.242 7.603,83.791C11.681,78.34 20.349,66.742 26.865,58.033L38.71,42.193L37.952,41.332C37.521,40.861 28.812,31.455 18.607,20.43C8.402,9.385 0.021,0.287 0.001,0.184C-0.04,0.082 1.742,0 4.304,0.021L8.669,0.041L10.103,1.619C10.902,2.48 18.32,10.492 26.599,19.447C34.878,28.402 41.886,35.984 42.173,36.311L42.685,36.906L46.783,31.414C49.038,28.402 55.247,20.082 60.574,12.951L70.288,0L85.144,0C97.501,0 99.98,0.041 99.898,0.266C99.837,0.43 96.066,5.512 91.517,11.598C86.968,17.664 81.763,24.631 79.96,27.049C78.136,29.467 72.788,36.66 68.033,42.992C63.279,49.344 59.386,54.631 59.386,54.713C59.386,54.857 84.509,82.131 93.054,91.25L95.493,93.852L91.005,93.852L86.538,93.832L81.312,88.176C78.443,85.061 71.415,77.439 65.677,71.27L55.288,60.041L42.685,76.885L30.062,93.75L15.206,93.852C7.029,93.914 0.288,93.893 0.247,93.832ZM35.452,75.676C40.308,69.16 47.808,59.139 52.111,53.381C56.415,47.643 65.964,34.857 73.341,25C80.718,15.123 86.824,6.947 86.927,6.803C87.05,6.619 85.595,6.557 80.288,6.557L73.505,6.557L60.062,24.549C29.038,66.004 13.382,86.947 13.197,87.254C13.074,87.439 14.468,87.5 19.816,87.5L26.599,87.5L35.452,75.676Z" fill="#000000"/>
</svg>
