<svg width="40" height="40" viewBox="0 0 40 40" fill="none" xmlns="http://www.w3.org/2000/svg" xmlns:xlink="http://www.w3.org/1999/xlink">
<path d="M10,32C9.433,32 8.958,31.808 8.575,31.425C8.192,31.042 8,30.567 8,30L8,26L34,26L34,8L38,8C38.567,8 39.042,8.192 39.425,8.575C39.808,8.958 40,9.433 40,10L40,40L32,32L10,32ZM0,30L0,2C0,1.433 0.192,0.958 0.575,0.575C0.958,0.192 1.433,0 2,0L28,0C28.567,0 29.042,0.192 29.425,0.575C29.808,0.958 30,1.433 30,2L30,20C30,20.567 29.808,21.042 29.425,21.425C29.042,21.808 28.567,22 28,22L8,22L0,30ZM26,18L26,4L4,4L4,18L26,18Z" fill="#000000"/>
</svg>
