<svg width="40" height="38" viewBox="0 0 40 38" fill="none" xmlns="http://www.w3.org/2000/svg" xmlns:xlink="http://www.w3.org/1999/xlink">
<path d="M27.716,25.534C24.903,31.284 19.978,35.153 13.463,36.425C12.464,36.67 11.438,36.79 10.409,36.781C6.659,36.781 3.222,35.219 1.553,32.659C-0.687,29.25 -1.45,22.022 5.938,16.675C6.088,17.491 6.394,18.61 6.597,19.272C5.147,20.349 3.96,21.742 3.125,23.344C1.75,26.044 1.903,28.741 3.531,31.234C4.656,32.916 6.438,33.938 8.728,34.25C11.589,34.612 14.492,34.066 17.025,32.688C20.997,30.6 23.644,28.106 25.375,24.697C24.886,24.191 24.596,23.525 24.56,22.822C24.533,22.068 24.808,21.334 25.322,20.781C25.836,20.229 26.549,19.903 27.303,19.875L27.41,19.875C28.143,19.871 28.85,20.15 29.384,20.653C29.919,21.156 30.239,21.845 30.279,22.578C30.319,23.311 30.076,24.031 29.6,24.589C29.124,25.148 28.452,25.502 27.722,25.578L27.716,25.534ZM36.675,19.222C40.491,23.547 40.594,28.638 39.119,31.591C37.744,34.288 34.119,36.988 29.244,36.988C26.968,36.941 24.729,36.403 22.681,35.409C23.397,34.9 24.413,34.084 24.972,33.575C26.551,34.259 28.251,34.623 29.972,34.644C33.128,34.644 35.519,33.169 36.944,30.472C37.86,28.691 37.913,26.603 37.047,24.466C35.985,21.776 34.095,19.494 31.65,17.95C28.443,15.788 24.662,14.636 20.794,14.641L19.878,14.641C19.665,15.134 19.317,15.558 18.876,15.864C18.434,16.17 17.915,16.346 17.378,16.372L17.281,16.372C16.539,16.363 15.829,16.065 15.303,15.541C14.777,15.017 14.476,14.308 14.464,13.566C14.451,12.824 14.729,12.106 15.238,11.565C15.746,11.024 16.446,10.702 17.188,10.669L17.291,10.669C17.808,10.669 18.314,10.812 18.755,11.082C19.196,11.351 19.555,11.737 19.791,12.197L20.606,12.197C27.106,12.197 32.813,14.691 36.675,19.222ZM10.816,26.409C10.762,25.891 10.888,25.369 11.172,24.931C8.322,19.994 6.797,13.735 9.138,7.219C10.816,2.322 15.041,-0.987 19.622,-0.987C24.51,-0.987 29.6,3.291 30.21,11.535C29.447,11.281 28.335,10.91 27.666,10.772C27.5,8.075 25.222,1.356 19.825,1.456C17.891,1.51 15.041,2.425 13.575,4.306C11.762,6.552 10.708,9.315 10.563,12.197C10.219,16.149 11.146,20.108 13.209,23.497C13.323,23.455 13.445,23.438 13.566,23.447L13.666,23.447C14.422,23.433 15.152,23.72 15.696,24.245C16.24,24.77 16.554,25.49 16.567,26.245C16.581,27.001 16.294,27.732 15.769,28.276C15.244,28.82 14.525,29.133 13.769,29.147L13.666,29.147C12.928,29.144 12.22,28.857 11.689,28.346C11.158,27.834 10.846,27.137 10.816,26.4L10.816,26.409Z" fill="#764ABC"/>
</svg>
