<svg width="64" height="64" viewBox="0 0 64 64" fill="none" xmlns="http://www.w3.org/2000/svg" xmlns:xlink="http://www.w3.org/1999/xlink">
<path d="M43.604,34.217C46.683,31.808 48.931,28.504 50.034,24.766C51.137,21.027 51.041,17.04 49.759,13.358C48.477,9.677 46.074,6.484 42.882,4.224C39.691,1.964 35.871,0.75 31.953,0.75C28.036,0.75 24.216,1.964 21.025,4.224C17.833,6.484 15.43,9.677 14.148,13.358C12.866,17.04 12.77,21.027 13.873,24.766C14.976,28.504 17.224,31.808 20.302,34.217C15.027,36.319 10.424,39.805 6.984,44.304C3.543,48.803 1.396,54.147 0.769,59.764C0.724,60.175 0.76,60.59 0.876,60.986C0.992,61.382 1.185,61.752 1.444,62.073C1.969,62.724 2.731,63.14 3.564,63.231C4.397,63.322 5.232,63.081 5.886,62.559C6.539,62.038 6.958,61.28 7.05,60.451C7.739,54.346 10.667,48.708 15.272,44.613C19.878,40.519 25.839,38.255 32.016,38.255C38.194,38.255 44.155,40.519 48.76,44.613C53.366,48.708 56.293,54.346 56.983,60.451C57.068,61.219 57.436,61.928 58.016,62.441C58.596,62.954 59.347,63.236 60.123,63.231L60.469,63.231C61.292,63.137 62.044,62.723 62.562,62.079C63.079,61.436 63.32,60.615 63.232,59.796C62.602,54.162 60.443,48.805 56.985,44.299C53.528,39.793 48.902,36.308 43.604,34.217ZM31.953,31.999C29.469,31.999 27.04,31.266 24.975,29.894C22.909,28.521 21.299,26.57 20.348,24.287C19.397,22.004 19.148,19.493 19.633,17.069C20.118,14.646 21.314,12.42 23.071,10.673C24.828,8.925 27.066,7.736 29.503,7.254C31.939,6.772 34.465,7.019 36.761,7.965C39.056,8.91 41.018,10.511 42.398,12.566C43.778,14.62 44.515,17.036 44.515,19.506C44.515,22.82 43.192,25.997 40.836,28.34C38.48,30.683 35.285,31.999 31.953,31.999Z" fill="#000000"/>
</svg>
