<svg width="100" height="100" viewBox="0 0 100 100" fill="none" xmlns="http://www.w3.org/2000/svg" xmlns:xlink="http://www.w3.org/1999/xlink">
<path d="M72.16,0.322C77.233,0.553 80.74,1.299 83.985,2.56C87.232,3.822 89.691,5.422 92.135,7.865C94.578,10.309 96.178,12.768 97.44,16.015C98.701,19.261 99.447,22.767 99.678,27.841C99.965,34.132 100,36.35 100,50C100,63.65 99.965,65.868 99.678,72.16C99.447,77.233 98.701,80.739 97.44,83.986C96.178,87.233 94.578,89.691 92.135,92.134C89.692,94.578 87.232,96.178 83.985,97.44C80.738,98.701 77.232,99.447 72.16,99.678C65.87,99.965 63.652,100 50,100C36.348,100 34.13,99.965 27.841,99.678C22.768,99.447 19.261,98.701 16.014,97.44C12.767,96.178 10.308,94.578 7.865,92.135C5.422,89.691 3.822,87.232 2.56,83.985C1.299,80.739 0.553,77.233 0.322,72.16C0.035,65.872 0,63.656 0,50C0,36.344 0.035,34.128 0.322,27.84C0.553,22.767 1.299,19.261 2.56,16.015C3.822,12.768 5.421,10.309 7.865,7.866C10.308,5.422 12.767,3.822 16.014,2.56C19.26,1.299 22.767,0.553 27.84,0.322C34.128,0.035 36.344,0 50,0C63.656,0 65.872,0.035 72.16,0.322ZM50,11.111C36.498,11.111 34.433,11.144 28.347,11.421C24.484,11.598 22.165,12.091 20.039,12.916C18.225,13.622 17.072,14.372 15.722,15.722C14.371,17.072 13.621,18.225 12.917,20.039C12.09,22.165 11.598,24.484 11.421,28.347C11.144,34.433 11.111,36.498 11.111,50C11.111,63.502 11.144,65.567 11.421,71.653C11.598,75.516 12.09,77.835 12.916,79.96C13.621,81.775 14.372,82.928 15.722,84.278C17.072,85.628 18.225,86.378 20.039,87.083C22.165,87.91 24.484,88.402 28.347,88.579C34.436,88.856 36.502,88.889 50,88.889C63.498,88.889 65.564,88.856 71.653,88.579C75.516,88.402 77.834,87.91 79.96,87.083C81.775,86.378 82.928,85.628 84.278,84.278C85.628,82.928 86.378,81.775 87.083,79.961C87.91,77.835 88.402,75.516 88.579,71.653C88.856,65.563 88.889,63.496 88.889,50C88.889,36.504 88.856,34.437 88.579,28.347C88.402,24.484 87.91,22.165 87.084,20.04C86.378,18.225 85.628,17.072 84.278,15.722C82.928,14.372 81.775,13.622 79.96,12.917C77.835,12.09 75.516,11.598 71.653,11.421C65.567,11.144 63.502,11.111 50,11.111ZM50,75.926C35.682,75.926 24.074,64.318 24.074,50C24.074,35.682 35.682,24.074 50,24.074C64.318,24.074 75.926,35.682 75.926,50C75.926,64.318 64.318,75.926 50,75.926ZM50,64.815C58.182,64.815 64.815,58.182 64.815,50C64.815,41.818 58.182,35.185 50,35.185C41.818,35.185 35.185,41.818 35.185,50C35.185,58.182 41.818,64.815 50,64.815ZM75.926,29.63C72.858,29.63 70.37,27.142 70.37,24.074C70.37,21.006 72.858,18.519 75.926,18.519C78.994,18.519 81.481,21.006 81.481,24.074C81.481,27.142 78.994,29.63 75.926,29.63Z" fill="#000000"/>
</svg>
