<svg width="40" height="40" viewBox="0 0 40 40" fill="none" xmlns="http://www.w3.org/2000/svg" xmlns:xlink="http://www.w3.org/1999/xlink">
<path d="M38,24C37.47,24 36.961,24.211 36.586,24.586C36.211,24.961 36,25.47 36,26L36,34C36,34.53 35.789,35.039 35.414,35.414C35.039,35.789 34.53,36 34,36L6,36C5.47,36 4.961,35.789 4.586,35.414C4.211,35.039 4,34.53 4,34L4,26C4,25.47 3.789,24.961 3.414,24.586C3.039,24.211 2.53,24 2,24C1.47,24 0.961,24.211 0.586,24.586C0.211,24.961 0,25.47 0,26L0,34C0,35.591 0.632,37.117 1.757,38.243C2.883,39.368 4.409,40 6,40L34,40C35.591,40 37.117,39.368 38.243,38.243C39.368,37.117 40,35.591 40,34L40,26C40,25.47 39.789,24.961 39.414,24.586C39.039,24.211 38.53,24 38,24ZM18.58,27.42C18.77,27.602 18.995,27.745 19.24,27.84C19.479,27.946 19.738,28 20,28C20.262,28 20.521,27.946 20.76,27.84C21.006,27.745 21.23,27.602 21.42,27.42L29.42,19.42C29.797,19.043 30.008,18.533 30.008,18C30.008,17.467 29.797,16.957 29.42,16.58C29.043,16.203 28.533,15.992 28,15.992C27.467,15.992 26.957,16.203 26.58,16.58L22,21.18L22,2C22,1.47 21.789,0.961 21.414,0.586C21.039,0.211 20.53,0 20,0C19.47,0 18.961,0.211 18.586,0.586C18.211,0.961 18,1.47 18,2L18,21.18L13.42,16.58C13.234,16.394 13.012,16.246 12.769,16.145C12.525,16.044 12.264,15.992 12,15.992C11.736,15.992 11.475,16.044 11.231,16.145C10.988,16.246 10.766,16.394 10.58,16.58C10.394,16.766 10.246,16.988 10.145,17.231C10.044,17.475 9.992,17.736 9.992,18C9.992,18.264 10.044,18.525 10.145,18.769C10.246,19.012 10.394,19.234 10.58,19.42L18.58,27.42Z" fill="#000000"/>
</svg>
